# xmcd CD database file
#
# Track frame offsets:
#	150
#	13361
#	26569
#	40585
#	54850
#	70350
#	86295
#	102306
#	119523
#	136529
#	150977
#	163822
#	183340
#	196012
#	210469
#
# Disc length: 3017 seconds
#
# Revision: 0
# Processed by: cddbd v1.5.2PL0 Copyright (c) Steve Scherf et al.
# Submitted via: CDex 1.94
#
DISCID=b80bc70f
DTITLE=Truck Stop - Weites Land CD2
DYEAR=2015
DGENRE=Country
TTITLE0=Take it easy altes Haus
TTITLE1=Country made in Germany
TTITLE2=Cowboys und Texasboots
TTITLE3=Die Lady und der Tramp
TTITLE4=Alles Bingo
TTITLE5=Gegen den Wind
TTITLE6=California
TTITLE7=Damenwahl (Western Dance Version)
TTITLE8=Der Kaffee muss schwarz sein
TTITLE9=Von Arizona bis Old Texas Town
TTITLE10=Echte Cowboys weinen nie
TTITLE11=Immer geradeaus
TTITLE12=Country Music
TTITLE13=Mississippi Lady
TTITLE14=Truck Stop and Peter (Schuerzenjaeger) - Freunde bleiben
EXTD=YEAR: 2015
EXTT0=
EXTT1=
EXTT2=
EXTT3=
EXTT4=
EXTT5=
EXTT6=
EXTT7=
EXTT8=
EXTT9=
EXTT10=
EXTT11=
EXTT12=
EXTT13=
EXTT14=
PLAYORDER=
